HIERARCHY
ROOT hip
{
  OFFSET 0 0 0
  CHANNELS 6 Xposition Yposition Zposition Zrotation Yrotation Xrotation
  JOINT abdomen
  {
    OFFSET 0 20.6881 -0.73152
    CHANNELS 3 Zrotation Xrotation Yrotation
    JOINT chest
    {
      OFFSET 0 11.7043 -0.48768
      CHANNELS 3 Zrotation Xrotation Yrotation
      JOINT neck
      {
        OFFSET 0 22.1894 -2.19456
        CHANNELS 3 Zrotation Xrotation Yrotation
        JOINT head
        {
          OFFSET -0.24384 7.07133 1.2192
          CHANNELS 3 Zrotation Xrotation Yrotation
          JOINT leftEye
          {
            OFFSET 4.14528 8.04674 8.04672
            CHANNELS 3 Zrotation Xrotation Yrotation
            End Site
            {
              OFFSET 1 0 0
            }
          }
          JOINT rightEye
          {
            OFFSET -3.6576 8.04674 8.04672
            CHANNELS 3 Zrotation Xrotation Yrotation
            End Site
            {
              OFFSET 1 0 0
            }
          }
        }
      }
      JOINT rCollar
      {
        OFFSET -2.68224 19.2634 -4.8768
        CHANNELS 3 Zrotation Xrotation Yrotation
        JOINT rShldr
        {
          OFFSET -8.77824 -1.95073 1.46304
          CHANNELS 3 Zrotation Xrotation Yrotation
          JOINT rForeArm
          {
            OFFSET -28.1742 -1.7115 0.48768
            CHANNELS 3 Zrotation Xrotation Yrotation
            JOINT rHand
            {
              OFFSET -22.5879 0.773209 7.07136
              CHANNELS 3 Zrotation Xrotation Yrotation
              JOINT rThumb1
              {
                OFFSET -1.2192 -0.487915 3.41376
                CHANNELS 3 Zrotation Xrotation Yrotation
                JOINT rThumb2
                {
                  OFFSET -3.37035 -0.52449 3.41376
                  CHANNELS 3 Zrotation Xrotation Yrotation
                  End Site
                  {
                    OFFSET -1.78271 -1.18214 1.43049
                  }
                }
              }
              JOINT rIndex1
              {
                OFFSET -7.75947 0.938293 5.60832
                CHANNELS 3 Zrotation Xrotation Yrotation
                JOINT rIndex2
                {
                  OFFSET -2.54057 -0.884171 1.56538
                  CHANNELS 3 Zrotation Xrotation Yrotation
                  End Site
                  {
                    OFFSET -1.62519 -0.234802 1.16502
                  }
                }
              }
              JOINT rMid1
              {
                OFFSET -8.24714 1.18213 3.41376
                CHANNELS 3 Zrotation Xrotation Yrotation
                JOINT rMid2
                {
                  OFFSET -3.10165 -0.590103 1.0647
                  CHANNELS 3 Zrotation Xrotation Yrotation
                  End Site
                  {
                    OFFSET -2.48547 -0.328903 0.83742
                  }
                }
              }
              JOINT rRing1
              {
                OFFSET -8.82822 0.546677 1.51678
                CHANNELS 3 Zrotation Xrotation Yrotation
                JOINT rRing2
                {
                  OFFSET -2.60934 -0.819778 -0.0198488
                  CHANNELS 3 Zrotation Xrotation Yrotation
                  End Site
                  {
                    OFFSET -2.33842 -0.294052 0.168128
                  }
                }
              }
              JOINT rPinky1
              {
                OFFSET -8.27202 -0.0477905 -0.4584
                CHANNELS 3 Zrotation Xrotation Yrotation
                JOINT rPinky2
                {
                  OFFSET -1.82734 -0.647385 -0.700984
                  CHANNELS 3 Zrotation Xrotation Yrotation
                  End Site
                  {
                    OFFSET -1.69225 -0.51767 -0.607171
                  }
                }
              }
            }
          }
        }
      }
      JOINT lCollar
      {
        OFFSET 2.68224 19.2634 -4.8768
        CHANNELS 3 Zrotation Xrotation Yrotation
        JOINT lShldr
        {
          OFFSET 8.77824 -1.95073 1.46304
          CHANNELS 3 Zrotation Xrotation Yrotation
          JOINT lForeArm
          {
            OFFSET 28.1742 -1.7115 0.48768
            CHANNELS 3 Zrotation Xrotation Yrotation
            JOINT lHand
            {
              OFFSET 22.5879 0.773209 7.07136
              CHANNELS 3 Zrotation Xrotation Yrotation
              JOINT lThumb1
              {
                OFFSET 1.2192 -0.487915 3.41376
                CHANNELS 3 Zrotation Xrotation Yrotation
                JOINT lThumb2
                {
                  OFFSET 3.37035 -0.52449 3.41376
                  CHANNELS 3 Zrotation Xrotation Yrotation
                  End Site
                  {
                    OFFSET 1.78271 -1.18214 1.43049
                  }
                }
              }
              JOINT lIndex1
              {
                OFFSET 7.75947 0.938293 5.60832
                CHANNELS 3 Zrotation Xrotation Yrotation
                JOINT lIndex2
                {
                  OFFSET 2.54057 -0.884171 1.56538
                  CHANNELS 3 Zrotation Xrotation Yrotation
                  End Site
                  {
                    OFFSET 1.62519 -0.234802 1.16502
                  }
                }
              }
              JOINT lMid1
              {
                OFFSET 8.24714 1.18213 3.41376
                CHANNELS 3 Zrotation Xrotation Yrotation
                JOINT lMid2
                {
                  OFFSET 3.10165 -0.590103 1.0647
                  CHANNELS 3 Zrotation Xrotation Yrotation
                  End Site
                  {
                    OFFSET 2.48547 -0.328903 0.83742
                  }
                }
              }
              JOINT lRing1
              {
                OFFSET 8.82822 0.546677 1.51678
                CHANNELS 3 Zrotation Xrotation Yrotation
                JOINT lRing2
                {
                  OFFSET 2.60934 -0.819778 -0.0198488
                  CHANNELS 3 Zrotation Xrotation Yrotation
                  End Site
                  {
                    OFFSET 2.33842 -0.294052 0.168128
                  }
                }
              }
              JOINT lPinky1
              {
                OFFSET 8.27202 -0.0477905 -0.4584
                CHANNELS 3 Zrotation Xrotation Yrotation
                JOINT lPinky2
                {
                  OFFSET 1.82734 -0.647385 -0.700984
                  CHANNELS 3 Zrotation Xrotation Yrotation
                  End Site
                  {
                    OFFSET 1.69225 -0.51767 -0.607171
                  }
                }
              }
            }
          }
        }
      }
    }
  }
  JOINT rButtock
  {
    OFFSET -8.77824 4.35084 1.2192
    CHANNELS 3 Zrotation Xrotation Yrotation
    JOINT rThigh
    {
      OFFSET 0 -1.70687 -2.19456
      CHANNELS 3 Zrotation Xrotation Yrotation
      JOINT rShin
      {
        OFFSET 0 -36.8199 0.73152
        CHANNELS 3 Zrotation Xrotation Yrotation
        JOINT rFoot
        {
          OFFSET 0.73152 -45.1104 -5.12064
          CHANNELS 3 Zrotation Xrotation Yrotation
          End Site
          {
            OFFSET -1.1221 -3.69964 12.103
          }
        }
      }
    }
  }
  JOINT lButtock
  {
    OFFSET 8.77824 4.35084 1.2192
    CHANNELS 3 Zrotation Xrotation Yrotation
    JOINT lThigh
    {
      OFFSET 0 -1.70687 -2.19456
      CHANNELS 3 Zrotation Xrotation Yrotation
      JOINT lShin
      {
        OFFSET 0 -36.8199 0.73152
        CHANNELS 3 Zrotation Xrotation Yrotation
        JOINT lFoot
        {
          OFFSET -0.73152 -45.1104 -5.12064
          CHANNELS 3 Zrotation Xrotation Yrotation
          End Site
          {
            OFFSET 1.1221 -3.69964 12.103
          }
        }
      }
    }
  }
}
MOTION
Frames:	4
Frame Time:	0.00833333
50.049 85.5269 255.204 0.0 0.0 0.0 2.34101 -0.00222422 0.0637215 0.646597 0.00594977 0.111938 -6.15098e-14 0.0 2.48481e-16 -1.84572e-13 3.18055e-15 8.69683e-16 -0.0 0.0 0.0 -0.0 0.0 0.0 -3.07135e-14 1.85584e-16 1.98785e-16 -6.38381e-13 3.64024e-15 2.18663e-15 -1.10445e-11 3.42784e-12 1.84472e-13 -1.26319e-10 -2.6162e-12 4.0393e-13 -2.97979e-10 1.76165e-12 1.30085e-12 -5.14601e-10 3.04379e-12 2.24627e-12 -2.97971e-10 1.76362e-12 1.29449e-12 7.73091 5.47488 0.417314 -2.97979e-10 1.76123e-12 1.30403e-12 2.90554 0.965183 0.102902 -2.97974e-10 1.76173e-12 1.29449e-12 10.2786 0.731801 0.0259123 -2.97983e-10 1.76521e-12 1.30085e-12 2.22167 -0.733487 -0.20892 -3.0713e-14 1.87331e-16 0.0 -6.42958e-13 4.34841e-15 1.98785e-16 -1.10356e-11 -3.16863e-12 1.55847e-13 -1.26316e-10 4.01304e-12 4.35736e-13 -2.97949e-10 1.82506e-12 1.29767e-12 -5.14532e-10 3.14875e-12 2.25183e-12 -2.97955e-10 1.82564e-12 1.29131e-12 -7.73091 5.47488 -0.417314 -2.9795e-10 1.82474e-12 1.28812e-12 -2.90554 0.965183 -0.102902 -2.97959e-10 1.82534e-12 1.29608e-12 -10.2786 0.731801 -0.0259123 -2.97947e-10 1.82564e-12 1.29449e-12 -2.22167 -0.733487 0.20892 -2.03217e-16 0.0 -3.88251e-19 2.21546 -8.02974 -0.231358 0.00607186 8.97369 0.152073 -0.477665 -0.95146 0.0348613 2.03217e-16 0.0 3.88251e-19 1.35204 -1.92788 -0.00535761 0.0084667 -2.07867 0.0694612 0.423885 3.99897 -0.127293
51.7234 84.1407 243.314 -179.257 7.2064 179.474 2.45668 1.15131 0.469884 0.503979 -1.88056 0.253038 -1.27794 1.95516 -0.557034 1.66359 1.34079 -0.0755149 -0.0 0.0 0.0 -0.0 0.0 0.0 -1.27874e-14 -1.3129e-15 1.42358e-13 22.1151 13.8729 -2.38253 -5.52067 -2.8366 8.2366 0.00296568 1.21254 0.170275 -3.28633e-11 -5.94365e-11 -4.0095e-11 -5.53667e-11 -1.01837e-10 -7.126e-11 -3.28572e-11 -5.94345e-11 -4.01023e-11 7.73091 5.47488 0.417314 -3.28645e-11 -5.94363e-11 -4.00907e-11 2.90554 0.965183 0.102902 -3.28577e-11 -5.94357e-11 -4.00984e-11 10.2786 0.731801 0.0259123 -3.28685e-11 -5.94327e-11 -4.00913e-11 2.22167 -0.733487 -0.20892 -1.28054e-14 -1.31117e-15 1.42175e-13 -22.2033 9.69081 1.86308 5.61301 -2.90691 -8.34521 -0.0377683 4.31397 -0.600102 -7.57834e-10 -4.58142e-10 -7.3556e-11 -1.31099e-09 -7.84179e-10 -1.1929e-10 -7.5784e-10 -4.58143e-10 -7.3559e-11 -7.73091 5.47488 -0.417314 -7.57836e-10 -4.58146e-10 -7.35655e-11 -2.90554 0.965183 -0.102902 -7.57843e-10 -4.58144e-10 -7.35584e-11 -10.2786 0.731801 -0.0259123 -7.57829e-10 -4.58142e-10 -7.35619e-11 -2.22167 -0.733487 0.20892 -2.03217e-16 0.0 -3.88251e-19 4.54831 -10.0517 5.16213 0.0240515 15.729 0.285548 -1.99273 -6.19993 -8.22159 2.03217e-16 0.0 3.88251e-19 -0.0426479 -4.83462 -5.3564 -0.0555432 6.61132 -0.161836 1.51286 -3.28293 6.47456
51.6566 84.1838 243.409 -179.344 6.9083 179.973 2.56274 2.38018 0.90024 0.361267 -3.87316 0.402902 -2.59597 4.0277 -1.14631 3.44455 2.73767 -0.155015 -0.0 0.0 0.0 -0.0 0.0 0.0 5.31799e-15 -4.0443e-15 3.00597e-13 46.9061 28.4526 -5.41532 -10.4814 -5.64159 17.0108 -0.00174096 2.48227 0.348841 2.58478e-10 -1.28202e-10 -8.34649e-11 4.49334e-10 -2.19697e-10 -1.48405e-10 2.58483e-10 -1.28199e-10 -8.34733e-11 7.73091 5.47488 0.417314 2.58476e-10 -1.28201e-10 -8.34594e-11 2.90554 0.965183 0.102902 2.58485e-10 -1.282e-10 -8.34652e-11 10.2786 0.731801 0.0259123 2.58472e-10 -1.28197e-10 -8.34574e-11 2.22167 -0.733487 -0.20892 5.28005e-15 -4.04257e-15 3.00432e-13 -46.395 19.8924 4.01684 10.6359 -5.77437 -17.2353 0.0217026 8.88292 -1.24732 -1.2679e-09 -9.57326e-10 -1.51258e-10 -2.19429e-09 -1.63847e-09 -2.44962e-10 -1.2679e-09 -9.57329e-10 -1.51258e-10 -7.73091 5.47488 -0.417314 -1.2679e-09 -9.57334e-10 -1.51268e-10 -2.90554 0.965183 -0.102902 -1.26791e-09 -9.57331e-10 -1.51262e-10 -10.2786 0.731801 -0.0259123 -1.26789e-09 -9.57329e-10 -1.51267e-10 -2.22167 -0.733487 0.20892 -2.03217e-16 0.0 -3.88251e-19 7.43233 -12.0476 10.9343 0.00552949 22.8735 0.441099 -5.2379 -11.3593 -17.1804 2.03217e-16 0.0 3.88251e-19 -2.11481 -7.78603 -11.0881 -0.0447463 15.7945 -0.420401 4.50794 -10.7364 13.6915
51.6188 84.2007 243.499 -179.326 6.6097 180.418 2.63888 3.45762 1.28426 0.246754 -5.65337 0.537442 -3.71927 5.86325 -1.67891 5.00139 4.02234 -0.227042 -0.0 0.0 0.0 -0.0 0.0 0.0 2.30648e-14 -4.30988e-15 4.26677e-13 70.7644 41.2812 -9.25135 -14.1808 -7.8078 24.9259 -0.0127608 3.63748 0.511741 4.97367e-10 -1.81833e-10 -1.22887e-10 8.63102e-10 -3.11599e-10 -2.18273e-10 4.97371e-10 -1.81831e-10 -1.22896e-10 7.73091 5.47488 0.417314 4.97364e-10 -1.81831e-10 -1.2288e-10 2.90554 0.965183 0.102902 4.97375e-10 -1.81831e-10 -1.22884e-10 10.2786 0.731801 0.0259123 4.97361e-10 -1.81829e-10 -1.22876e-10 2.22167 -0.733487 -0.20892 2.30097e-14 -4.30818e-15 4.26526e-13 -68.7262 28.9404 6.2986 14.368 -7.98222 -25.2649 0.163756 12.9362 -1.84197 -1.6776e-09 -1.37808e-09 -2.23263e-10 -2.90391e-09 -2.35883e-09 -3.62373e-10 -1.67761e-09 -1.37808e-09 -2.2326e-10 -7.73091 5.47488 -0.417314 -1.67761e-09 -1.37809e-09 -2.23273e-10 -2.90554 0.965183 -0.102902 -1.67761e-09 -1.37808e-09 -2.23267e-10 -10.2786 0.731801 -0.0259123 -1.67759e-09 -1.37808e-09 -2.23275e-10 -2.22167 -0.733487 0.20892 -2.03217e-16 0.0 -3.88251e-19 10.3624 -13.6743 16.1768 -0.0486123 29.2389 0.600675 -9.53991 -15.3173 -25.5587 2.03217e-16 0.0 3.88251e-19 -4.459 -10.2918 -16.27 0.0419941 23.9899 -0.679838 8.7926 -16.8352 20.5642
